<svg width="26" height="26" viewBox="0 0 26 26" fill="none" xmlns="http://www.w3.org/2000/svg">
<path opacity="0.5" d="M18.2048 12.8468L25.3071 19.9491C25.7332 20.3752 25.9463 20.9434 25.9463 21.5116C25.9463 22.1508 25.7332 22.719 25.3071 23.1451L23.7446 24.7076C23.2474 25.1337 22.6792 25.3468 22.1111 25.3468C21.4719 25.3468 20.9747 25.1337 20.5486 24.7076L13.4463 17.6053L6.34402 24.7076C5.91788 25.1337 5.3497 25.3468 4.78152 25.3468C4.14231 25.3468 3.57413 25.1337 3.14799 24.7076L1.58549 23.1451C1.15936 22.719 0.946289 22.1508 0.946289 21.5116C0.946289 20.9434 1.15936 20.3752 1.58549 19.9491L8.68777 12.8468L1.58549 5.74453C1.15936 5.31839 0.946289 4.82123 0.946289 4.18203C0.946289 3.61385 1.15936 3.04567 1.58549 2.54851L3.14799 0.986006C3.57413 0.55987 4.14231 0.346802 4.78152 0.346802C5.3497 0.346802 5.91788 0.55987 6.34402 0.986006L13.4463 8.08828L20.5486 0.986006C20.9747 0.55987 21.4719 0.346802 22.1111 0.346802C22.6792 0.346802 23.2474 0.55987 23.7446 0.986006L25.3071 2.54851C25.7332 3.04567 25.9463 3.61385 25.9463 4.18203C25.9463 4.82123 25.7332 5.31839 25.3071 5.74453L18.2048 12.8468Z" fill="#40BFFF"/>
</svg>
