<svg width="8" height="16" viewBox="0 0 8 16" fill="none" xmlns="http://www.w3.org/2000/svg">
<path d="M0.370537 8.70912H2.02853V15.5371C2.02853 15.6018 2.05425 15.6639 2.10001 15.7097C2.14577 15.7554 2.20782 15.7811 2.27254 15.7811H5.08453C5.14925 15.7811 5.21131 15.7554 5.25706 15.7097C5.30282 15.6639 5.32854 15.6018 5.32854 15.5371V8.74112H7.23553C7.29533 8.74103 7.35302 8.71898 7.39763 8.67916C7.44224 8.63934 7.47068 8.58453 7.47754 8.52512L7.76753 6.01112C7.77148 5.97698 7.76817 5.94238 7.75781 5.90961C7.74746 5.87683 7.73029 5.84661 7.70744 5.82093C7.6846 5.79525 7.65658 5.77469 7.62523 5.76059C7.59388 5.74649 7.5599 5.73918 7.52553 5.73912H5.32553V4.16412C5.32553 3.68912 5.58154 3.44812 6.08554 3.44812H7.52153C7.58624 3.44812 7.6483 3.42242 7.69406 3.37666C7.73982 3.3309 7.76553 3.26884 7.76553 3.20412V0.897123C7.76607 0.832752 7.74115 0.770777 7.6962 0.724699C7.65124 0.678622 7.58989 0.652176 7.52553 0.651123H5.54454H5.45354C4.54132 0.654342 3.66083 0.9863 2.97354 1.58612C2.64923 1.86954 2.40039 2.22909 2.2494 2.63247C2.09842 3.03584 2.05002 3.47041 2.10854 3.89712V5.74012H0.367531C0.302818 5.74012 0.240759 5.76583 0.195 5.81159C0.149241 5.85735 0.123535 5.91941 0.123535 5.98412V8.46512C0.123533 8.49742 0.129938 8.5294 0.142387 8.5592C0.154837 8.589 0.173084 8.61603 0.19606 8.63873C0.219036 8.66142 0.246287 8.67933 0.276237 8.69142C0.306188 8.7035 0.338243 8.70952 0.370537 8.70912Z" fill="#385C8E"/>
</svg>
