<svg width="9" height="17" viewBox="0 0 9 17" fill="none" xmlns="http://www.w3.org/2000/svg">
<path d="M0.333544 8.89243H2.09557V16.1529C2.09557 16.2217 2.12289 16.2877 2.17152 16.3363C2.22015 16.385 2.2861 16.4123 2.35488 16.4123H5.3433C5.41208 16.4123 5.47803 16.385 5.52666 16.3363C5.57529 16.2877 5.60261 16.2217 5.60261 16.1529V8.92646H7.62926C7.69281 8.92636 7.75411 8.90291 7.80152 8.86057C7.84893 8.81823 7.87916 8.75994 7.88645 8.69678L8.19464 6.02357C8.19883 5.98726 8.19531 5.95047 8.18431 5.91562C8.1733 5.88077 8.15506 5.84864 8.13078 5.82133C8.10649 5.79403 8.07672 5.77216 8.0434 5.75717C8.01009 5.74218 7.97398 5.7344 7.93745 5.73434H5.59942V4.05959C5.59942 3.55451 5.87149 3.29825 6.40711 3.29825H7.9332C8.00197 3.29825 8.06792 3.27091 8.11655 3.22226C8.16518 3.1736 8.19251 3.10761 8.19251 3.0388V0.585691C8.19308 0.517243 8.1666 0.451343 8.11882 0.402348C8.07105 0.353352 8.00585 0.325232 7.93745 0.324112L5.83217 0.324112H5.73546C4.766 0.327535 3.83028 0.680516 3.09986 1.31833C2.7552 1.6197 2.49075 2.00202 2.33029 2.43094C2.16984 2.85986 2.1184 3.32195 2.18059 3.77568V5.7354H0.330349C0.261576 5.7354 0.195623 5.76274 0.146993 5.81139C0.0983634 5.86005 0.0710449 5.92604 0.0710449 5.99486V8.63298C0.0710423 8.66732 0.0778496 8.70132 0.09108 8.73301C0.10431 8.7647 0.123702 8.79344 0.14812 8.81758C0.172538 8.84171 0.201498 8.86076 0.233328 8.87361C0.265158 8.88646 0.299223 8.89285 0.333544 8.89243Z" fill="white"/>
</svg>
