<svg width="39" height="26" viewBox="0 0 39 26" fill="none" xmlns="http://www.w3.org/2000/svg">
<path d="M1.85093 0.219238H36.8509C37.0743 0.223529 37.2946 0.271843 37.4992 0.361328C37.7039 0.450813 37.889 0.579684 38.0438 0.740723C38.1986 0.901762 38.3201 1.09176 38.4015 1.2998C38.4828 1.50785 38.5224 1.72978 38.5179 1.95312V23.6274C38.5224 23.8508 38.4828 24.0727 38.4015 24.2808C38.3201 24.4888 38.1986 24.6788 38.0438 24.8398C37.889 25.0009 37.7039 25.1298 37.4992 25.2192C37.2946 25.3087 37.0743 25.357 36.8509 25.3613H1.85093C1.62759 25.357 1.4073 25.3087 1.20262 25.2192C0.997937 25.1298 0.812878 25.0009 0.658062 24.8398C0.503245 24.6788 0.381628 24.4888 0.300274 24.2808C0.21892 24.0727 0.179432 23.8508 0.183941 23.6274V1.95312C0.179432 1.72978 0.21892 1.50785 0.300274 1.2998C0.381628 1.09176 0.503245 0.901762 0.658062 0.740723C0.812878 0.579684 0.997937 0.450813 1.20262 0.361328C1.4073 0.271843 1.62759 0.223529 1.85093 0.219238Z" fill="url(#paint0_linear_8_528)"/>
<defs>
<linearGradient id="paint0_linear_8_528" x1="19.3509" y1="25.3613" x2="19.3509" y2="0.219238" gradientUnits="userSpaceOnUse">
<stop stop-color="#E59703"/>
<stop offset="0.231" stop-color="#E59703"/>
<stop offset="0.234" stop-color="white"/>
<stop offset="0.761" stop-color="white"/>
<stop offset="0.766" stop-color="#5457BB"/>
<stop offset="1" stop-color="#5457BB"/>
</linearGradient>
</defs>
</svg>
