<svg width="87" height="13" viewBox="0 0 87 13" fill="none" xmlns="http://www.w3.org/2000/svg">
<path d="M50.457 4.99072L46.471 7.75366L47.641 12.2438L43.769 9.53174L39.647 12.0997L41.239 7.65967L37.522 4.75977L42.378 4.72766L44.203 0.365723L45.612 4.78577L50.457 4.99072Z" fill="#FFC600"/>
<path d="M32.187 4.99072L28.2019 7.75366L29.3719 12.2438L25.4999 9.53174L21.3779 12.0997L22.9699 7.65967L19.252 4.75977L24.1089 4.72766L25.9339 0.365723L27.343 4.78577L32.187 4.99072Z" fill="#FFC600"/>
<path d="M13.917 4.99072L9.93195 7.75366L11.102 12.2438L7.22894 9.53174L3.10696 12.0997L4.69894 7.65967L0.980957 4.75977L5.83694 4.72766L7.66196 0.365723L9.07095 4.78577L13.917 4.99072Z" fill="#FFC600"/>
<path d="M68.728 4.99072L64.7429 7.75366L65.913 12.2438L62.041 9.53174L57.9189 12.0997L59.5109 7.65967L55.793 4.75977L60.65 4.72766L62.475 0.365723L63.884 4.78577L68.728 4.99072Z" fill="#FFC600"/>
<path d="M86.999 4.99072L83.013 7.75366L84.183 12.2438L80.31 9.53174L76.188 12.0997L77.78 7.65967L74.062 4.75977L78.918 4.72766L80.743 0.365723L82.152 4.78577L86.999 4.99072Z" fill="#C1C8CE"/>
</svg>
