<svg width="18" height="13" viewBox="0 0 18 13" fill="none" xmlns="http://www.w3.org/2000/svg">
<path d="M17.362 1.53895C16.7121 1.79428 16.0247 1.96403 15.3211 2.04296C16.0629 1.64691 16.6176 1.01962 16.8801 0.279969C16.1863 0.650397 15.4274 0.911475 14.636 1.05195C14.1504 0.584038 13.5196 0.25855 12.8257 0.117836C12.1318 -0.0228783 11.4069 0.0276939 10.7454 0.262973C10.0838 0.498253 9.51622 0.907345 9.11646 1.43702C8.7167 1.9667 8.50326 2.59244 8.50393 3.23283C8.50134 3.47728 8.52907 3.72123 8.5866 3.96014C7.17714 3.89784 5.79815 3.56843 4.53977 2.99345C3.2814 2.41847 2.17198 1.61087 1.28404 0.623425C0.828023 1.32511 0.686784 2.15707 0.889172 2.94935C1.09156 3.74164 1.62231 4.43446 2.37299 4.8863C1.81231 4.8729 1.26344 4.73833 0.772635 4.49393V4.52902C0.773393 5.26513 1.05559 5.97857 1.57179 6.54942C2.08799 7.12028 2.80673 7.51375 3.60721 7.66371C3.30398 7.73611 2.9914 7.77187 2.6777 7.77004C2.45257 7.77372 2.22765 7.75554 2.00685 7.71581C2.23551 8.34844 2.67623 8.90178 3.26841 9.29973C3.86059 9.69769 4.57515 9.92072 5.31385 9.93816C4.06121 10.8193 2.51703 11.2977 0.927355 11.2971C0.643941 11.2989 0.360691 11.2843 0.0793457 11.2535C1.69879 12.1929 3.58577 12.69 5.51227 12.6847C6.83891 12.6931 8.15416 12.464 9.38163 12.0108C10.6091 11.5577 11.7243 10.8895 12.6625 10.045C13.6007 9.20052 14.3432 8.19663 14.8468 7.09163C15.3505 5.98663 15.6052 4.80256 15.5963 3.60818C15.5963 3.46676 15.5963 3.33065 15.5833 3.19561C16.2832 2.74544 16.886 2.18402 17.362 1.53895Z" fill="white"/>
</svg>
