<svg width="15" height="13" viewBox="0 0 15 13" fill="none" xmlns="http://www.w3.org/2000/svg">
<path d="M14.6872 2.05799C14.1369 2.29812 13.555 2.45775 12.9592 2.53199C13.5873 2.15953 14.057 1.5696 14.2792 0.873992C13.6918 1.22236 13.0492 1.46789 12.3792 1.59999C11.968 1.15995 11.4339 0.853849 10.8464 0.721515C10.2589 0.589181 9.64511 0.636741 9.08499 0.858009C8.52486 1.07928 8.0443 1.46401 7.70582 1.96214C7.36735 2.46027 7.18664 3.04875 7.1872 3.65099C7.18501 3.88089 7.20848 4.11031 7.2572 4.33499C6.06382 4.2764 4.89625 3.96661 3.8308 3.42588C2.76535 2.88514 1.82601 2.12563 1.0742 1.19699C0.688096 1.85689 0.56851 2.6393 0.739871 3.3844C0.911231 4.1295 1.36061 4.78107 1.9962 5.20599C1.52148 5.19339 1.05676 5.06684 0.641199 4.83699V4.86999C0.641842 5.56226 0.880773 6.23321 1.31783 6.77007C1.7549 7.30693 2.36345 7.67697 3.0412 7.81799C2.78446 7.88609 2.51981 7.91971 2.2542 7.91799C2.06358 7.92146 1.87315 7.90436 1.6862 7.86699C1.8798 8.46195 2.25295 8.98233 2.75434 9.35659C3.25573 9.73084 3.86075 9.94059 4.4862 9.95699C3.4256 10.7857 2.11816 11.2356 0.772199 11.235C0.532236 11.2367 0.292411 11.223 0.0541992 11.194C1.42537 12.0775 3.02305 12.545 4.6542 12.54C5.77744 12.5478 6.89105 12.3324 7.93034 11.9062C8.96963 11.4801 9.91388 10.8516 10.7082 10.0575C11.5026 9.26328 12.1313 8.31917 12.5577 7.27999C12.9841 6.2408 13.1998 5.12724 13.1922 4.00399C13.1922 3.87099 13.1922 3.74299 13.1812 3.61599C13.7738 3.19263 14.2842 2.66465 14.6872 2.05799Z" fill="#03A9F4"/>
</svg>
